<svg width="100" height="100" viewBox="0 0 100 100" fill="none" xmlns="http://www.w3.org/2000/svg">
<g clip-path="url(#clip0_60_2)">
<path d="M11.1111 14.2857C4.97444 14.2857 0 18.5714 0 23.8095V90.4762C0 95.7143 4.97444 100 11.1111 100H44.4444H55.5556H88.8889C95.0278 100 100 95.7143 100 90.4762V23.8095C100 18.5714 95.0278 14.2857 88.8889 14.2857H55.5556H44.4444H11.1111Z" fill="#BDC3C7"/>
<path d="M11.1111 9.5238C4.97444 9.5238 0 13.7876 0 19.0476V85.7143C0 90.9762 4.97444 95.2381 11.1111 95.2381H44.4444H55.5556H88.8889C95.0278 95.2381 100 90.9762 100 85.7143V19.0476C100 13.7876 95.0278 9.5238 88.8889 9.5238H55.5556H44.4444H11.1111Z" fill="#ECF0F1"/>
<path d="M11.1111 9.5238C4.97444 9.5238 0 13.7876 0 19.0476V33.3333V38.0952H100V33.3333V19.0476C100 13.7876 95.0278 9.5238 88.8889 9.5238H55.5556H44.4444H11.1111Z" fill="#E74C3C"/>
<path d="M24.9999 21.4286C24.9999 22.3666 24.7844 23.2954 24.3656 24.162C23.9468 25.0286 23.333 25.8161 22.5591 26.4793C21.7853 27.1426 20.8667 27.6687 19.8556 28.0277C18.8446 28.3867 17.7609 28.5714 16.6666 28.5714C15.5722 28.5714 14.4886 28.3867 13.4776 28.0277C12.4665 27.6687 11.5478 27.1426 10.774 26.4793C10.0002 25.8161 9.38638 25.0286 8.96759 24.162C8.5488 23.2954 8.33325 22.3666 8.33325 21.4286C8.33325 20.4905 8.5488 19.5617 8.96759 18.6951C9.38638 17.8285 10.0002 17.0411 10.774 16.3778C11.5478 15.7145 12.4665 15.1884 13.4776 14.8294C14.4886 14.4705 15.5722 14.2857 16.6666 14.2857C17.7609 14.2857 18.8446 14.4705 19.8556 14.8294C20.8667 15.1884 21.7853 15.7145 22.5591 16.3778C23.333 17.0411 23.9468 17.8285 24.3656 18.6951C24.7844 19.5617 24.9999 20.4905 24.9999 21.4286Z" fill="#C0392B"/>
<path d="M16.6666 0C13.5983 0 11.1111 2.1319 11.1111 4.7619V19.0476C11.1111 21.6776 13.5983 23.8095 16.6666 23.8095C19.735 23.8095 22.2222 21.6776 22.2222 19.0476V4.7619C22.2222 2.1319 19.735 0 16.6666 0Z" fill="#BDC3C7"/>
<path d="M91.6667 21.4286C91.6667 22.3666 91.4511 23.2954 91.0323 24.162C90.6135 25.0286 89.9997 25.8161 89.2259 26.4793C88.4521 27.1426 87.5334 27.6687 86.5224 28.0277C85.5113 28.3867 84.4277 28.5714 83.3333 28.5714C82.239 28.5714 81.1554 28.3867 80.1443 28.0277C79.1333 27.6687 78.2146 27.1426 77.4408 26.4793C76.667 25.8161 76.0531 25.0286 75.6343 24.162C75.2155 23.2954 75 22.3666 75 21.4286C75 20.4905 75.2155 19.5617 75.6343 18.6951C76.0531 17.8285 76.667 17.0411 77.4408 16.3778C78.2146 15.7145 79.1333 15.1884 80.1443 14.8294C81.1554 14.4705 82.239 14.2857 83.3333 14.2857C84.4277 14.2857 85.5113 14.4705 86.5224 14.8294C87.5334 15.1884 88.4521 15.7145 89.2259 16.3778C89.9997 17.0411 90.6135 17.8285 91.0323 18.6951C91.4511 19.5617 91.6667 20.4905 91.6667 21.4286Z" fill="#C0392B"/>
<path d="M83.3334 0C80.2667 0 77.7778 1.90476 77.7778 4.7619V19.0476C77.7778 21.4286 80.2667 23.8095 83.3334 23.8095C86.4001 23.8095 88.8889 21.4286 88.8889 19.0476V4.7619C88.8889 1.90476 86.4001 0 83.3334 0Z" fill="#BDC3C7"/>
<path d="M11.1111 47.619V57.1428H22.2222V47.619H11.1111ZM27.7778 47.619V57.1428H38.8889V47.619H27.7778ZM44.4444 47.619V57.1428H55.5555V47.619H44.4444ZM61.1111 47.619V57.1428H72.2222V47.619H61.1111ZM77.7778 47.619V57.1428H88.8889V47.619H77.7778Z" fill="#BDC3C7"/>
<path d="M11.1111 61.9048V71.4286H22.2222V61.9048H11.1111ZM27.7778 61.9048V71.4286H38.8889V61.9048H27.7778ZM44.4444 61.9048V71.4286H55.5555V61.9048H44.4444ZM61.1111 61.9048V71.4286H72.2222V61.9048H61.1111ZM77.7778 61.9048V71.4286H88.8889V61.9048H77.7778Z" fill="#BDC3C7"/>
<path d="M11.1111 76.1905V85.7143H22.2222V76.1905H11.1111ZM27.7778 76.1905V85.7143H38.8889V76.1905H27.7778ZM44.4444 76.1905V85.7143H55.5555V76.1905H44.4444ZM61.1111 76.1905V85.7143H72.2222V76.1905H61.1111ZM77.7778 76.1905V85.7143H88.8889V76.1905H77.7778Z" fill="#BDC3C7"/>
</g>
<defs>
<clipPath id="clip0_60_2">
<rect width="100" height="100" fill="white"/>
</clipPath>
</defs>
</svg>
