<svg width="100" height="100" viewBox="0 0 100 100" fill="none" xmlns="http://www.w3.org/2000/svg">
<g clip-path="url(#clip0_71_24)">
<g clip-path="url(#clip1_71_24)">
<path d="M92.02 31.4792C96.8657 42.6238 97.0858 55.2369 92.6318 66.5438C88.1778 77.8507 79.4146 86.9251 68.27 91.7708C57.1254 96.6166 44.5123 96.8366 33.2054 92.3826C21.8985 87.9287 12.8241 79.1654 7.97835 68.0208C3.13263 56.8762 2.91255 44.2631 7.36654 32.9562C11.8205 21.6493 20.5837 12.5749 31.7283 7.72917C42.873 2.88344 55.4861 2.66336 66.793 7.11735C78.0998 11.5713 87.1743 20.3345 92.02 31.4792Z" fill="#1ABC9C"/>
<path d="M87.4978 49.7291C87.4978 59.6745 83.5471 69.2125 76.5146 76.245C69.4821 83.2775 59.9441 87.2282 49.9987 87.2282C40.0533 87.2282 30.5152 83.2775 23.4828 76.245C16.4503 69.2125 12.4995 59.6745 12.4995 49.7291C12.4995 39.7837 16.4503 30.2456 23.4828 23.2132C30.5152 16.1807 40.0533 12.2299 49.9987 12.2299C59.9441 12.2299 69.4821 16.1807 76.5146 23.2132C83.5471 30.2456 87.4978 39.7837 87.4978 49.7291Z" fill="#ECF0F1"/>
<path d="M4.30798 47.5001C3.9634 54.5835 5.04132 61.2497 7.95382 67.9164C18.0442 91.2497 45.0334 102.083 68.2413 92.0833C86.1163 84.1666 96.483 66.25 95.7121 47.9167C94.8663 64.5834 84.7496 80.4166 68.2413 87.9166C45.033 97.9166 18.0455 87.083 7.95382 63.7497C5.63507 58.7497 4.53715 52.9168 4.30798 47.5001Z" fill="#16A085"/>
<path d="M83.3334 50C83.3334 52.0834 81.4667 54.1667 79.1667 54.1667H54.1667V45.8334H79.1667C81.4667 45.8334 83.3334 47.5 83.3334 50Z" fill="#3498DB"/>
<path d="M49.9999 20.8334C47.6999 20.8334 45.8333 22.6988 45.8333 25V41.6667V45.8334H54.1666V41.6667V25C54.1666 22.6988 52.2999 20.8334 49.9999 20.8334Z" fill="#2C3E50"/>
<path d="M45.6967 51.4794L25.0728 72.1034L28.019 75.0497L48.643 54.4257L45.6967 51.4794Z" fill="#C0392B"/>
<path d="M50.0001 41.6667C45.3959 41.6667 41.6667 45.4167 41.6667 50C41.6667 54.5834 45.3959 58.3334 50.0001 58.3334C54.6042 58.3334 58.3334 54.5834 58.3334 50C58.3334 45.4167 54.6042 41.6667 50.0001 41.6667ZM50.0001 45.8334C52.3001 45.8334 54.1667 47.5 54.1667 50C54.1667 52.0834 52.3001 54.1667 50.0001 54.1667C47.7001 54.1667 45.8334 52.0834 45.8334 50C45.8334 47.5 47.7001 45.8334 50.0001 45.8334Z" fill="#34495E"/>
</g>
</g>
<defs>
<clipPath id="clip0_71_24">
<rect width="100" height="100" fill="white"/>
</clipPath>
<clipPath id="clip1_71_24">
<rect width="100" height="100" fill="white"/>
</clipPath>
</defs>
</svg>
