<svg width="100" height="100" viewBox="0 0 100 100" fill="none" xmlns="http://www.w3.org/2000/svg">
<g clip-path="url(#clip0_71_88)">
<g clip-path="url(#clip1_71_88)">
<path d="M95.8337 50.0002C95.8337 75.3117 75.3118 95.8337 50.0002 95.8337C24.6872 95.8337 4.16675 75.3117 4.16675 50.0002C4.16675 24.6871 24.6872 4.16669 50.0002 4.16669C75.3118 4.16669 95.8337 24.6871 95.8337 50.0002Z" fill="#34495E"/>
<path d="M50 4.16669C22.3858 4.16669 0 26.5525 0 54.1667H8.33333C8.33333 31.1546 26.9883 12.5 50 12.5C73.0125 12.5 91.6667 31.1546 91.6667 54.1667H100C100 26.5525 77.6125 4.16669 50 4.16669Z" fill="#2C3E50"/>
<path d="M54.1667 45.8333V54.1666H58.3334H83.3334C85.6334 54.1666 87.5001 52.3 87.5001 50C87.5001 47.7 85.6334 45.8333 83.3334 45.8333H58.3334H54.1667Z" fill="#BDC3C7"/>
<path d="M49.9999 20.8333C47.6999 20.8333 45.8333 22.5 45.8333 25V41.6666V45.8333H54.1666V41.6666V25C54.1666 22.5 52.2999 20.8333 49.9999 20.8333Z" fill="#BDC3C7"/>
<path d="M45.6967 51.4794L25.0728 72.1034L28.019 75.0497L48.643 54.4257L45.6967 51.4794Z" fill="#C0392B"/>
<path d="M50.0001 41.6667C45.3959 41.6667 41.6667 45.4167 41.6667 50C41.6667 54.5834 45.3959 58.3334 50.0001 58.3334C54.6042 58.3334 58.3334 54.5834 58.3334 50C58.3334 45.4167 54.6042 41.6667 50.0001 41.6667ZM50.0001 45.8334C52.3001 45.8334 54.1667 47.5 54.1667 50C54.1667 52.0834 52.3001 54.1667 50.0001 54.1667C47.7001 54.1667 45.8334 52.0834 45.8334 50C45.8334 47.5 47.7001 45.8334 50.0001 45.8334Z" fill="#BDC3C7"/>
<path d="M50 0C22.3858 0 0 22.0833 0 50C0 77.5 22.3858 100 50 100C77.6125 100 100 77.5 100 50C100 22.0833 77.6125 0 50 0ZM50 8.33333C73.0125 8.33333 91.6667 26.6667 91.6667 50C91.6667 72.9167 73.0125 91.6667 50 91.6667C26.9883 91.6667 8.33333 72.9167 8.33333 50C8.33333 26.6667 26.9883 8.33333 50 8.33333Z" fill="#95A5A6"/>
<path d="M54.1666 50C54.1666 52.3 52.2999 54.1666 49.9999 54.1666C47.6999 54.1666 45.8333 52.3 45.8333 50C45.8333 47.7 47.6999 45.8333 49.9999 45.8333C52.2999 45.8333 54.1666 47.7 54.1666 50Z" fill="#2C3E50"/>
<path d="M57.2083 45.8333C57.9166 47.0833 58.3791 48.3333 58.3791 50C58.3791 51.25 57.9166 52.9166 57.2083 54.1666H58.3791H61.7624C62.2374 52.5 62.5458 51.25 62.5458 50C62.5458 48.3333 62.2374 47.0833 61.7624 45.8333H58.3791H57.2083Z" fill="#95A5A6"/>
</g>
</g>
<defs>
<clipPath id="clip0_71_88">
<rect width="100" height="100" fill="white"/>
</clipPath>
<clipPath id="clip1_71_88">
<rect width="100" height="100" fill="white"/>
</clipPath>
</defs>
</svg>
