<svg width="500" height="234" viewBox="0 0 500 234" fill="none" xmlns="http://www.w3.org/2000/svg">
<path d="M227.725 7.1165C226.978 7.19514 224.855 7.47037 223.007 7.70628C197.253 10.8518 173.307 25.8716 159.113 47.7723C154.71 54.5352 151.092 62.0451 148.89 69.0045C148.497 70.1841 148.104 71.3243 148.025 71.4816C147.907 71.6782 146.924 69.9875 145.784 67.7463C139.808 55.872 130.41 45.8063 117.081 37.1169C103.949 28.506 88.4964 23.08 70.4097 20.7602C65.8487 20.1704 61.2484 20.0918 36.2022 20.0524C4.43251 20.0524 5.76935 19.9345 4.58978 22.4116C4.07864 23.5518 4 31.9268 4 99.2015C4 151.968 4.11796 175.008 4.43251 175.873C4.66842 176.542 5.33684 177.407 5.88731 177.8C6.87028 178.468 8.561 178.508 35.4552 178.508C60.6979 178.508 64.5905 178.429 69.466 177.8C77.8017 176.699 85.6654 174.969 92.9788 172.531L99.5844 170.369L99.3091 169.111C98.6407 166.122 98.8766 161.876 99.9382 157.472C100.528 155.074 101.196 152.675 101.393 152.243C101.826 151.378 102.022 150.867 103.477 147.446C104.892 144.222 108.982 136.554 110.948 133.488C111.144 133.173 111.813 132.111 112.402 131.128C112.992 130.146 114.132 128.455 114.958 127.315C115.784 126.174 116.452 125.152 116.452 125.034C116.452 124.798 125.417 112.609 125.849 112.255C126.007 112.137 127.068 110.801 128.248 109.306C129.388 107.773 131.865 104.785 133.713 102.622C135.561 100.46 137.449 98.2971 137.881 97.7467C139.139 96.2132 142.442 92.5959 144.683 90.2368C146.138 88.7426 146.728 88.3495 146.531 88.9392C146.177 90.1581 146.138 101.207 146.492 104.745C147.121 111.941 148.34 117.642 150.542 124.405C152.193 129.398 152.39 129.713 154.434 130.735C158.602 132.898 165.365 132.151 174.251 128.573C187.148 123.343 202.993 113.278 219.507 99.8699C221.355 98.3365 226.309 94.208 230.477 90.63C234.645 87.0519 239.245 83.1594 240.7 81.9798C246.873 76.9076 253.203 71.9141 257.135 68.9259C259.455 67.1959 261.736 65.4265 262.247 64.994C262.758 64.6008 264.449 63.3426 265.982 62.2417C267.555 61.1407 268.892 60.0791 268.931 59.8825C269.01 59.7253 269.324 59.568 269.599 59.568C269.875 59.568 270.189 59.4107 270.268 59.2141C270.347 59.0568 271.801 57.9559 273.531 56.7763C275.261 55.6361 276.756 54.5745 276.873 54.4172C276.991 54.2992 278.132 53.5129 279.429 52.6478C280.727 51.7828 282.339 50.7212 282.968 50.2494C286.703 47.6937 290.281 45.4132 290.635 45.4132C290.832 45.4132 291.028 45.2166 291.028 45.02C291.028 44.7841 291.264 44.6268 291.539 44.6268C291.815 44.6268 292.404 44.3122 292.837 43.919C293.23 43.5258 295.275 42.2283 297.319 41.0094C303.256 37.4707 303.021 38.1785 299.443 34.4039C286.035 20.3277 267.751 10.9698 247.777 7.86356C243.846 7.27377 230.634 6.76263 227.725 7.1165ZM69.6233 69.2011C82.0874 72.15 92.4283 81.5866 95.4165 92.7925C96.3995 96.4098 96.3209 102.701 95.2593 106.554C92.4676 116.738 83.6602 125.231 72.0218 128.966C68.0506 130.224 64.5512 130.421 62.7425 129.477C60.1475 128.062 60.2261 128.966 60.2261 99.0835C60.2261 69.2798 60.1475 70.3021 62.7032 69.2011C64.3546 68.4934 66.5171 68.4934 69.6233 69.2011Z" fill="white"/>
<path d="M404.07 14.6269C393.454 15.374 383.192 17.6545 373.323 21.5077C368.919 23.1984 368.88 23.2377 369.784 25.9901C370.453 28.1133 370.295 31.9272 369.312 36.0164C367.897 42.0715 362.51 53.7886 357.949 60.7087C356.612 62.7533 355.511 64.4833 355.511 64.6013C355.511 64.6799 354.646 65.9774 353.545 67.4716C352.484 68.9657 351.579 70.2632 351.579 70.3812C351.579 70.8923 340.02 85.9122 336.284 90.2372C334.908 91.8493 332.942 94.1691 331.959 95.3094C330.976 96.489 329.168 98.5335 327.988 99.8704C326.809 101.168 325.157 103.016 324.331 103.96C323.506 104.864 322.759 105.572 322.68 105.493C322.641 105.454 322.719 103.96 322.837 102.23C323.427 95.3094 322.719 85.2437 321.107 78.245C320.793 76.9474 320.282 74.6669 319.928 73.1728C319.574 71.6787 318.945 69.7127 318.552 68.8084C318.158 67.9434 317.687 66.6852 317.529 66.0561C317.254 64.9158 316.507 63.8935 315.996 63.8935C315.839 63.8935 315.17 63.5004 314.502 63.0285C313.44 62.2815 312.654 62.1242 309.312 62.0456C305.812 61.9669 304.829 62.0849 300.701 63.3038C298.145 64.0115 295.825 64.8372 295.629 65.0338C295.393 65.2697 294.96 65.4663 294.646 65.4663C293.466 65.4663 281.828 71.2855 278.761 73.4087C278.21 73.8019 277.621 74.1165 277.542 74.1165C277.345 74.1165 267.751 80.4075 265.078 82.2555C258.669 86.7379 248.8 94.5623 239.324 102.701C221.748 117.721 208.498 128.101 192.888 139.111C185.654 144.183 174.369 151.575 173.858 151.575C173.622 151.575 173.465 151.732 173.465 151.968C173.465 152.165 173.268 152.361 173.032 152.361C172.796 152.361 172.128 152.676 171.577 153.108C170.988 153.501 169.729 154.288 168.746 154.838C167.803 155.349 166.938 155.979 166.859 156.214C166.662 156.844 172.246 162.584 176.61 166.201C189.782 177.25 205.352 184.092 223.203 186.647C227.764 187.276 241.447 187.276 246.008 186.647C275.891 182.362 300.268 165.494 314.305 139.386C316.428 135.454 317.765 132.387 319.731 126.883L321.186 122.793L322.248 125.9C330.78 150.238 354.489 171.706 381.658 179.649C391.331 182.44 399.824 183.58 411.541 183.58C427.426 183.58 440.008 181.025 453.062 175.205C464.936 169.858 474.176 163.488 482.748 154.681C488.803 148.39 495.919 138.403 496.509 135.257C497.02 132.466 496.666 131.837 493.914 130.461C490.533 128.809 453.612 114.379 450.585 113.553C448.343 112.924 448.186 112.924 446.849 113.632C446.102 114.065 444.058 116.109 442.328 118.193C437.491 124.169 432.852 127.708 427.033 129.949C421.449 132.073 419.247 132.466 411.934 132.466C403.638 132.505 400.256 131.758 393.847 128.573C384.568 123.973 377.923 116.266 375.485 107.262C374.306 102.977 374.306 95.2307 375.485 90.9843C377.923 81.9803 384.883 73.9592 394.241 69.3982C400.296 66.41 403.834 65.6629 411.934 65.7022C417.871 65.7022 419.051 65.8595 422.432 66.7638C429.864 68.7298 436.508 73.0549 442.131 79.5818C445.512 83.5137 445.748 83.5923 449.405 82.688C451.371 82.2162 489.314 67.1963 492.066 65.8202C494.543 64.562 495.487 63.5397 495.487 62.1635C495.448 58.6248 488.803 49.3062 480.664 41.4817C476.024 36.9601 474.058 35.3087 469.143 31.9666C450.624 19.2272 427.347 13.0148 404.07 14.6269Z" fill="white"/>
<path d="M156.086 199.701C152.154 200.762 150.542 202.768 150.778 206.385C150.896 208.469 151.053 208.823 152.351 210.002C153.294 210.867 154.71 211.575 156.636 212.126C158.209 212.597 160.45 213.266 161.59 213.58C165.168 214.642 166.427 216.844 165.011 219.596C163.596 222.309 157.501 222.742 153.216 220.422C151.957 219.754 150.896 219.242 150.856 219.321C149.952 220.54 149.991 220.972 151.171 221.877C154.316 224.157 161.905 224.668 164.972 222.781C167.056 221.484 167.96 219.832 167.96 217.355C167.96 213.856 166.151 212.362 160.018 210.71C155.968 209.609 154.474 208.941 153.648 207.722C152.311 205.835 153.294 203.24 155.693 202.139C157.816 201.195 162.377 201.392 164.697 202.532L166.309 203.358L166.781 202.375C167.016 201.824 167.134 201.352 167.095 201.313C166.505 200.802 164.225 199.937 162.534 199.583C159.939 199.032 158.445 199.072 156.086 199.701Z" fill="white"/>
<path d="M208.105 199.74C205.352 200.526 203.74 201.548 201.814 203.711C199.651 206.149 198.865 208.704 199.101 212.479C199.376 217.119 201.42 220.382 205.392 222.545C207.161 223.528 208.026 223.724 211.014 223.842C215.497 224.039 218.131 223.134 220.765 220.579C223.518 217.866 224.383 215.743 224.383 211.732C224.383 208.862 224.225 208.075 223.282 206.149C220.687 200.841 214.081 198.088 208.105 199.74ZM216.558 202.61C218.446 203.554 220.49 205.795 221.355 207.761C222.299 210.081 222.102 213.934 220.923 216.293C217.148 223.724 206.375 223.724 202.443 216.293C201.814 215.074 201.578 213.973 201.578 211.732C201.578 209.176 201.735 208.508 202.757 206.66C203.976 204.458 205.706 203.042 208.341 202.06C210.385 201.273 214.514 201.548 216.558 202.61Z" fill="white"/>
<path d="M295.786 199.74C293.034 200.527 291.422 201.549 289.495 203.711C287.332 206.149 286.546 208.705 286.782 212.48C287.057 217.119 289.102 220.383 293.073 222.545C294.803 223.489 295.747 223.725 298.578 223.843C302.431 224.039 304.672 223.45 306.953 221.719C308.368 220.658 308.368 220.619 307.621 219.871C306.874 219.124 306.835 219.124 305.183 220.186C298.617 224.315 289.967 220.304 289.18 212.755C288.748 208.705 290.753 204.773 294.135 202.925C297.752 200.959 302.156 201.116 305.38 203.318C306.756 204.262 306.874 204.262 307.582 203.633C308.329 202.964 308.329 202.925 307.503 202.06C305.38 199.78 299.679 198.679 295.786 199.74Z" fill="white"/>
<path d="M328.42 199.74C325.668 200.526 324.056 201.548 322.129 203.711C319.967 206.149 319.18 208.704 319.416 212.479C319.692 217.119 321.736 220.382 325.707 222.545C327.477 223.528 328.342 223.724 331.33 223.842C335.812 224.039 338.447 223.134 341.081 220.579C343.833 217.866 344.698 215.743 344.698 211.732C344.698 208.862 344.541 208.075 343.597 206.149C341.002 200.841 334.397 198.088 328.42 199.74ZM336.874 202.61C338.761 203.554 340.806 205.795 341.671 207.761C342.614 210.081 342.418 213.934 341.238 216.293C337.464 223.724 326.69 223.724 322.758 216.293C322.129 215.074 321.893 213.973 321.893 211.732C321.893 209.176 322.051 208.508 323.073 206.66C324.292 204.458 326.022 203.042 328.656 202.06C330.701 201.273 334.829 201.548 336.874 202.61Z" fill="white"/>
<path d="M363.689 199.701C359.757 200.762 358.145 202.768 358.381 206.385C358.499 208.469 358.656 208.823 359.954 210.002C360.897 210.867 362.313 211.575 364.24 212.126C365.812 212.597 368.053 213.266 369.194 213.58C372.772 214.642 374.03 216.844 372.614 219.596C371.199 222.309 365.105 222.742 360.819 220.422C359.561 219.754 358.499 219.242 358.46 219.321C357.555 220.54 357.595 220.972 358.774 221.877C361.92 224.157 369.508 224.668 372.575 222.781C374.659 221.484 375.563 219.832 375.563 217.355C375.563 213.856 373.755 212.362 367.621 210.71C363.571 209.609 362.077 208.941 361.251 207.722C359.914 205.835 360.897 203.24 363.296 202.139C365.419 201.195 369.98 201.392 372.3 202.532L373.912 203.358L374.384 202.375C374.62 201.824 374.738 201.352 374.698 201.313C374.109 200.802 371.828 199.937 370.137 199.583C367.542 199.032 366.048 199.072 363.689 199.701Z" fill="white"/>
<path d="M440.087 199.74C437.334 200.526 435.722 201.548 433.796 203.711C431.633 206.149 430.847 208.704 431.083 212.479C431.358 217.119 433.403 220.382 437.374 222.545C439.143 223.528 440.008 223.724 442.996 223.842C447.479 224.039 450.113 223.134 452.748 220.579C455.5 217.866 456.365 215.743 456.365 211.732C456.365 208.862 456.208 208.075 455.264 206.149C452.669 200.841 446.063 198.088 440.087 199.74ZM448.54 202.61C450.428 203.554 452.472 205.795 453.337 207.761C454.281 210.081 454.084 213.934 452.905 216.293C449.13 223.724 438.357 223.724 434.425 216.293C433.796 215.074 433.56 213.973 433.56 211.732C433.56 209.176 433.717 208.508 434.739 206.66C435.958 204.458 437.688 203.042 440.323 202.06C442.367 201.273 446.496 201.548 448.54 202.61Z" fill="white"/>
<path d="M474.963 199.701C471.031 200.762 469.419 202.768 469.654 206.385C469.772 208.469 469.93 208.823 471.227 210.002C472.171 210.867 473.586 211.575 475.513 212.126C477.086 212.597 479.327 213.266 480.467 213.58C484.045 214.642 485.303 216.844 483.888 219.596C482.472 222.309 476.378 222.742 472.092 220.422C470.834 219.754 469.772 219.242 469.733 219.321C468.829 220.54 468.868 220.972 470.048 221.877C473.193 224.157 480.782 224.668 483.849 222.781C485.933 221.484 486.837 219.832 486.837 217.355C486.837 213.856 485.028 212.362 478.894 210.71C474.845 209.609 473.35 208.941 472.525 207.722C471.188 205.835 472.171 203.24 474.569 202.139C476.693 201.195 481.254 201.392 483.573 202.532L485.185 203.358L485.657 202.375C485.893 201.824 486.011 201.352 485.972 201.313C485.382 200.802 483.102 199.937 481.411 199.583C478.816 199.032 477.322 199.072 474.963 199.701Z" fill="white"/>
<path d="M7.53906 211.732V224L14.5378 223.843C22.4803 223.685 23.7778 223.332 26.9233 220.422C29.4397 218.102 30.5013 215.468 30.5013 211.536C30.5013 207.722 29.6363 205.481 27.2379 203.161C24.1317 200.133 22.8341 199.78 14.7344 199.622L7.53906 199.465V211.732ZM22.4016 202.65C26.0976 204.301 28.0242 207.329 28.0636 211.575C28.0636 214.642 26.7267 217.827 24.7608 219.321C22.4409 221.09 20.475 221.562 15.1669 221.562H10.2914V211.497V201.431L15.3242 201.588C19.4134 201.745 20.6716 201.903 22.4016 202.65Z" fill="white"/>
<path d="M45.2852 207.958C45.2852 217.473 45.5604 218.81 47.9195 221.247C50.0427 223.41 52.048 224.039 56.0585 223.842C58.8502 223.685 59.6366 223.489 60.9734 222.624C64.5908 220.225 65.3378 217.473 65.3378 206.739V199.543H64.1976H63.0573L62.9 207.879C62.7821 215.507 62.6641 216.411 61.8778 218.063C59.8332 222.27 53.031 223.253 49.7675 219.793C47.9588 217.866 47.6443 215.9 47.6443 207.25V199.543H46.4647H45.2852V207.958Z" fill="white"/>
<path d="M82.2446 211.733V223.922H83.6208H84.997L85.0756 214.131L85.1936 204.341L92.8607 214.053C99.1518 221.956 100.725 223.764 101.629 223.843L102.69 223.961V211.772V199.544H101.511H100.331L100.253 209.413L100.135 219.282L92.3103 209.413C85.3508 200.645 84.3679 199.544 83.3456 199.544H82.2446V211.733Z" fill="white"/>
<path d="M119.597 211.733V223.921H128.247H136.898V222.742V221.562H129.624H122.349V217.041V212.519H128.641H134.932V211.536V210.553H128.641H122.349V206.031V201.51H129.427H136.504V200.527V199.544H128.051H119.597V211.733Z" fill="white"/>
<path d="M239.127 211.733V223.921H240.503H241.88V218.613V213.305H248.171H254.462V212.322V211.339H248.171H241.88V206.424V201.51H248.957H256.034V200.527V199.544H247.581H239.127V211.733Z" fill="white"/>
<path d="M390.506 211.733V223.921H391.686H392.865V214.21C392.865 208.902 392.983 204.655 393.18 204.812C393.337 204.97 395.5 208.587 398.016 212.833C401.201 218.22 402.813 220.579 403.285 220.579C403.757 220.579 405.329 218.299 408.436 212.951C410.873 208.744 413.075 205.127 413.311 204.891C413.586 204.616 413.704 207.565 413.704 214.21V223.921H414.884H416.063V211.733V199.544H414.923C413.901 199.544 413.468 200.133 408.593 208.587L403.363 217.63L400.139 212.165C398.331 209.137 395.971 205.088 394.831 203.122C392.983 199.937 392.629 199.544 391.646 199.544H390.506V211.733Z" fill="white"/>
</svg>
