<svg width="100" height="100" viewBox="0 0 100 100" fill="none" xmlns="http://www.w3.org/2000/svg">
<g clip-path="url(#clip0_72_101)">
<path fill-rule="evenodd" clip-rule="evenodd" d="M96.5156 22.5118C91.2074 20.3885 77.9692 15.0947 73.5232 13.317C72.1053 12.747 70.5129 12.8147 69.1484 13.4987L49.943 23.0996L26.9649 13.2528C25.8035 12.7541 24.4996 12.6864 23.2884 13.0569L3.89769 19.0241C1.65331 19.7152 0.125 21.785 0.125 24.1327C0.125 33.8868 0.125 68.0726 0.125 80.8014C0.125 82.4972 0.930125 84.0932 2.29456 85.1014C3.659 86.106 5.41887 86.4088 7.03981 85.91L24.5744 80.5128C24.9057 80.4131 25.2584 80.4095 25.5897 80.5022L48.4503 87.0358C49.487 87.3315 50.5878 87.3065 51.6102 86.9681L71.1577 80.4487C71.4142 80.3632 71.6885 80.3383 71.9557 80.3739L93.8259 83.2916C95.3506 83.4947 96.8932 83.028 98.051 82.0127C99.2088 81.0009 99.875 79.5332 99.875 77.9942C99.875 66.8863 99.875 36.2987 99.875 27.4743C99.875 25.2905 98.5462 23.324 96.5156 22.5118Z" fill="#28527A"/>
<path fill-rule="evenodd" clip-rule="evenodd" d="M7.26069 85.8423C6.7655 85.6678 6.29169 85.4184 5.86062 85.1013C4.49619 84.0931 3.69106 82.4971 3.69106 80.8014C3.69106 68.0726 3.69106 33.8868 3.69106 24.1327C3.69106 21.785 5.22294 19.7152 7.46375 19.0241L26.6371 13.1246C25.5612 12.7434 24.3856 12.7185 23.2884 13.0569L3.89769 19.0241C1.65331 19.7152 0.125 21.785 0.125 24.1327C0.125 33.8868 0.125 68.0726 0.125 80.8014C0.125 82.4971 0.930125 84.0931 2.29456 85.1013C3.659 86.106 5.41887 86.4088 7.03981 85.91L7.26069 85.8423Z" fill="#063C6F"/>
<path fill-rule="evenodd" clip-rule="evenodd" d="M70.6519 13.007C71.0224 13.0711 71.3929 13.1708 71.7491 13.3169C76.1987 15.0946 89.4334 20.3885 94.7415 22.5117C96.7721 23.324 98.1009 25.2905 98.1009 27.4743C98.1009 36.2986 98.1009 66.8862 98.1009 77.9941C98.1009 79.5331 97.4383 81.0009 96.2769 82.0126C95.5217 82.6752 94.6061 83.1027 93.6335 83.263L93.8259 83.2915C95.3507 83.4946 96.8932 83.0279 98.051 82.0126C99.2089 81.0009 99.875 79.5331 99.875 77.9941C99.875 66.8862 99.875 36.2986 99.875 27.4743C99.875 25.2905 98.5462 23.324 96.5156 22.5117C91.2075 20.3885 77.9692 15.0946 73.5232 13.3169C72.6005 12.9464 71.6102 12.8467 70.6519 13.007Z" fill="#3D668E"/>
<path fill-rule="evenodd" clip-rule="evenodd" d="M92.75 30.4063C92.75 29.708 92.3403 29.0739 91.7062 28.7853L72.1124 19.8791C71.6244 19.6546 71.0579 19.6653 70.577 19.9076L49.943 30.2246L25.7643 19.8613C25.3617 19.6903 24.9129 19.6725 24.4996 19.8114L8.46838 25.1551C7.74163 25.3974 7.25 26.0778 7.25 26.8438V76.7188C7.25 77.2923 7.52431 77.8303 7.991 78.1651C8.45413 78.5 9.05262 78.5891 9.59412 78.4074L25.1658 73.2168L49.6259 78.4608C49.8931 78.5178 50.1674 78.5143 50.4311 78.4466L71.4356 73.1955L90.6517 76.6903C91.1682 76.7829 91.7062 76.644 92.1087 76.3055C92.5149 75.9671 92.75 75.4648 92.75 74.9375V30.4063Z" fill="#8AC4D0"/>
<path fill-rule="evenodd" clip-rule="evenodd" d="M11.2293 77.8623C10.9621 77.5452 10.8125 77.1427 10.8125 76.7187V26.8437C10.8125 26.0778 11.3041 25.3974 12.0309 25.1551L26.7012 20.2638L25.7643 19.8612C25.3617 19.6902 24.9129 19.6724 24.4996 19.8114L8.46837 25.1551C7.74162 25.3974 7.25 26.0778 7.25 26.8437V76.7187C7.25 77.2923 7.52431 77.8302 7.991 78.1651C8.45413 78.5 9.05262 78.5891 9.59412 78.4074L11.2293 77.8623Z" fill="#4CA4B6"/>
<path fill-rule="evenodd" clip-rule="evenodd" d="M70.4951 19.9503L89.9321 28.7853C90.5698 29.0739 90.9759 29.708 90.9759 30.4063V74.9375C90.9759 75.4648 90.7408 75.9671 90.3382 76.3055C90.2136 76.4088 90.0746 76.4943 89.9321 76.5585L90.6517 76.6903C91.1683 76.7829 91.7062 76.644 92.1088 76.3055C92.5149 75.9671 92.7501 75.4648 92.7501 74.9375V30.4063C92.7501 29.708 92.3404 29.0739 91.7062 28.7853L72.1125 19.8791C71.6244 19.6546 71.058 19.6653 70.5771 19.9076L70.4951 19.9503Z" fill="#9EE0EE"/>
<path fill-rule="evenodd" clip-rule="evenodd" d="M92.75 62.4687C92.75 62.3725 92.7429 62.2799 92.7286 62.1873C92.5826 61.2931 92.0767 60.602 91.1718 60.1424C90.2349 59.665 88.5142 59.519 86.5726 59.4548C85.0158 59.4014 83.2738 59.3658 81.8986 58.8742C81.0294 58.5607 80.3489 58.012 80.2777 56.9041C80.1459 54.9198 79.3443 51.9985 77.7091 49.5369C75.9671 46.9149 73.3201 44.8272 69.6757 44.6598C65.3508 44.4567 63.3522 46.6014 60.9903 49.5796C58.2151 53.0851 54.6312 57.7734 42.704 58.9134C37.0076 59.4584 34.7988 63.3629 34.0578 67.1748C33.3845 70.6447 34.0115 73.9934 34.0115 73.9934C34.1433 74.6988 34.6848 75.2581 35.3902 75.4077L49.6259 78.4608C49.8931 78.5178 50.1674 78.5142 50.4346 78.4465L71.4356 73.1847L90.584 76.6795C91.1041 76.7722 91.6349 76.6332 92.0411 76.2984C92.4472 75.9635 92.6823 75.4647 92.6859 74.941C92.6859 74.941 92.75 66.9931 92.75 62.4687ZM7.25 44.6562C7.25 44.87 7.28919 45.0802 7.364 45.2797C7.364 45.2797 9.86487 52.8393 23.4202 51.7741C26.8651 51.5069 28.9492 50.6483 30.3457 49.6117C31.8099 48.5251 32.5616 47.207 33.2064 45.9138C33.6161 45.098 33.9189 44.2715 34.6528 43.705C35.3759 43.1457 36.4874 42.9106 38.3613 42.9783C42.6399 43.1279 45.1301 41.9487 46.4945 40.3955C47.9017 38.7923 48.2508 36.6762 47.8732 34.5494C47.3709 31.7065 45.5469 28.8565 43.9509 27.6631C41.6388 26.6442 25.6646 19.822 25.6646 19.822C25.2905 19.6902 24.8773 19.6831 24.4996 19.8113L8.46838 25.1551C7.74163 25.3973 7.25 26.0778 7.25 26.8437V44.6562ZM69.8966 38.5786C71.3964 41.7207 74.4138 44.9056 77.1748 45.9672C78.4038 46.4375 79.6044 46.5301 80.6802 46.2166C81.806 45.8924 82.8391 45.1372 83.6193 43.7442C85.3507 40.6377 84.599 38.1618 83.1776 35.9566C82.1729 34.3927 80.6838 33.0496 80.1815 31.6032C78.2008 25.8961 71.9949 24.4426 67.556 25.7714C64.1787 26.7832 61.9593 29.3303 62.4937 32.4867C62.9853 35.3902 65.0658 36.8045 67.2211 37.6345C68.1616 37.9979 69.4904 38.4432 69.8966 38.5786Z" fill="#FBEEAC"/>
<path fill-rule="evenodd" clip-rule="evenodd" d="M51.6744 78.1366L38.9527 75.4077C38.2473 75.2581 37.7058 74.6988 37.574 73.9934C37.574 73.9934 36.947 70.6447 37.6203 67.1748C38.3613 63.3629 40.5701 59.4584 46.2665 58.9134C58.1937 57.7734 61.7776 53.0851 64.5528 49.5796C66.4481 47.1856 68.1118 45.3295 70.9404 44.7987C70.5343 44.7275 70.1139 44.6776 69.6757 44.6598C65.3508 44.4567 63.3522 46.6014 60.9903 49.5796C58.2151 53.0851 54.6312 57.7734 42.704 58.9134C37.0076 59.4584 34.7988 63.3629 34.0578 67.1748C33.3845 70.6447 34.0115 73.9934 34.0115 73.9934C34.1433 74.6988 34.6848 75.2581 35.3902 75.4077L49.6259 78.4608C49.8931 78.5178 50.1674 78.5142 50.4346 78.4465L51.6744 78.1366ZM92.0446 76.2948L74.9981 73.1847L73.4947 73.5624L90.584 76.6795C91.1041 76.7722 91.6349 76.6332 92.0411 76.2984L92.0446 76.2948ZM22.7148 51.824C12.8823 51.1934 10.9265 45.2797 10.9265 45.2797C10.8517 45.0802 10.8125 44.87 10.8125 44.6562V26.8437C10.8125 26.0778 11.3041 25.3973 12.0309 25.1551L26.6977 20.2638L25.6646 19.822C25.2905 19.6902 24.8773 19.6831 24.4996 19.8113L8.46838 25.1551C7.74163 25.3973 7.25 26.0778 7.25 26.8437V44.6562C7.25 44.87 7.28919 45.0802 7.364 45.2797C7.364 45.2797 9.77937 52.5757 22.7148 51.824ZM75.3472 44.9911C76.3482 45.2654 77.2531 45.6965 78.0654 46.2451C78.9809 46.4588 79.868 46.4553 80.6802 46.2166C80.8121 46.181 80.9403 46.1347 81.0686 46.0848C80.9581 46.0492 80.8477 46.01 80.7373 45.9672C77.9763 44.9056 74.9589 41.7207 73.4591 38.5786C73.0529 38.4432 71.7241 37.9979 70.7836 37.6345C68.6283 36.8045 66.5478 35.3902 66.0562 32.4867C65.5218 29.3303 67.7412 26.7832 71.1185 25.7714C71.5781 25.6325 72.0519 25.5256 72.5399 25.4508C70.8335 25.1836 69.0879 25.3119 67.556 25.7714C64.1787 26.7832 61.9593 29.3303 62.4937 32.4867C62.9853 35.3902 65.0658 36.8045 67.2211 37.6345C68.1616 37.9979 69.4904 38.4432 69.8966 38.5786C71.0686 41.0332 73.1669 43.5162 75.3472 44.9911Z" fill="#E1D286"/>
<path fill-rule="evenodd" clip-rule="evenodd" d="M70.6874 73.3735L69.6614 73.1847L49.0773 78.3432L49.6259 78.4608C49.8931 78.5178 50.1674 78.5142 50.4346 78.4465L70.6874 73.3735ZM68.2578 44.6812C71.717 44.9662 74.2499 47.0004 75.935 49.5369C77.5702 51.9985 78.3753 54.9198 78.5035 56.9041C78.5783 58.012 79.2552 58.5607 80.1245 58.8742C81.4996 59.3658 83.2416 59.4014 84.7985 59.4548C86.74 59.519 88.4607 59.665 89.4012 60.1424C90.3061 60.602 90.812 61.2931 90.9545 62.1873C90.9687 62.2799 90.9758 62.3725 90.9758 62.4687C90.9758 66.9931 90.9117 74.941 90.9117 74.941C90.9081 75.4647 90.673 75.9635 90.2669 76.2984C90.1458 76.3981 90.0104 76.4836 89.8679 76.5477L90.584 76.6795C91.1041 76.7722 91.6349 76.6332 92.041 76.2984C92.4472 75.9635 92.6823 75.4647 92.6858 74.941C92.6858 74.941 92.75 66.9931 92.75 62.4687C92.75 62.3725 92.7428 62.2799 92.7286 62.1873C92.5825 61.2931 92.0766 60.602 91.1718 60.1424C90.2348 59.665 88.5142 59.519 86.5726 59.4548C85.0158 59.4014 83.2737 59.3658 81.8986 58.8742C81.0293 58.5607 80.3489 58.012 80.2777 56.9041C80.1458 54.9198 79.3443 51.9985 77.7091 49.5369C75.967 46.9149 73.3201 44.8272 69.6757 44.6598C69.1733 44.6349 68.6995 44.642 68.2578 44.6812ZM20.0144 51.8632C21.0618 51.8988 22.1982 51.8703 23.4202 51.7741C26.8651 51.5069 28.9492 50.6483 30.3457 49.6117C31.8098 48.5251 32.5615 47.207 33.2063 45.9138C33.616 45.098 33.9188 44.2715 34.6527 43.705C35.1871 43.2918 35.9317 43.0567 37.0432 42.989C36.8935 42.9854 36.7403 42.9818 36.5872 42.9783C34.7133 42.9106 33.6018 43.1457 32.8786 43.705C32.1483 44.2715 31.8419 45.098 31.4322 45.9138C30.7874 47.207 30.0357 48.5251 28.5715 49.6117C27.175 50.6483 25.091 51.5069 21.646 51.7741C21.0832 51.8204 20.5381 51.8489 20.0144 51.8632ZM69.8716 25.3475C73.4163 25.6182 76.993 27.5242 78.4109 31.6032C78.9097 33.0496 80.3988 34.3927 81.407 35.9566C82.8248 38.1618 83.5765 40.6377 81.8451 43.7442C81.065 45.1372 80.0318 45.8924 78.9061 46.2166C78.76 46.2593 78.6104 46.295 78.4572 46.3235C79.2338 46.4517 79.982 46.4197 80.6802 46.2166C81.806 45.8924 82.8391 45.1372 83.6193 43.7442C85.3507 40.6377 84.599 38.1618 83.1775 35.9566C82.1729 34.3927 80.6838 33.0496 80.1815 31.6032C78.5285 26.8366 73.9257 25.0375 69.8716 25.3475ZM24.1398 19.9289C26.1704 20.7982 40.0357 26.719 42.1803 27.6631C43.7727 28.8565 45.5967 31.7065 46.1026 34.5494C46.4767 36.6762 46.1275 38.7923 44.7203 40.3955C43.534 41.7492 41.4856 42.818 38.144 42.9712C38.2152 42.9712 38.2865 42.9747 38.3613 42.9783C42.6398 43.1279 45.13 41.9487 46.4945 40.3955C47.9017 38.7923 48.2508 36.6762 47.8732 34.5494C47.3708 31.7065 45.5468 28.8565 43.9508 27.6631C41.6388 26.6442 25.6645 19.822 25.6645 19.822C25.2905 19.6902 24.8772 19.6831 24.4996 19.8113L24.1398 19.9289Z" fill="#FFF7D0"/>
<path fill-rule="evenodd" clip-rule="evenodd" d="M51.7812 85.4576V25.0625C51.7812 24.0793 50.9832 23.2812 50 23.2812C49.0168 23.2812 48.2188 24.0793 48.2188 25.0625V85.4576C48.2188 86.4408 49.0168 87.2388 50 87.2388C50.9832 87.2388 51.7812 86.4408 51.7812 85.4576ZM73.1562 78.5V16.1562C73.1562 15.173 72.3582 14.375 71.375 14.375C70.3918 14.375 69.5938 15.173 69.5938 16.1562V78.5C69.5938 79.4832 70.3918 80.2812 71.375 80.2812C72.3582 80.2812 73.1562 79.4832 73.1562 78.5ZM26.8438 76.8719V15.9924C26.8438 15.0982 26.0457 14.375 25.0625 14.375C24.0793 14.375 23.2812 15.0982 23.2812 15.9924V76.8719C23.2812 77.7661 24.0793 78.4893 25.0625 78.4893C26.0457 78.4893 26.8438 77.7661 26.8438 76.8719Z" fill="#28527A"/>
</g>
<defs>
<clipPath id="clip0_72_101">
<rect width="100" height="100" fill="white"/>
</clipPath>
</defs>
</svg>
