<svg xmlns="http://www.w3.org/2000/svg" xmlns:xlink="http://www.w3.org/1999/xlink" width="500" zoomAndPan="magnify" viewBox="0 0 375 374.999991" height="500" preserveAspectRatio="xMidYMid meet" version="1.0"><defs><clipPath id="ff19fdc28c"><path d="M 335 88 L 368.726562 88 L 368.726562 134 L 335 134 Z M 335 88 " clip-rule="nonzero"/></clipPath><clipPath id="206051228e"><path d="M 6.476562 149 L 35 149 L 35 187 L 6.476562 187 Z M 6.476562 149 " clip-rule="nonzero"/></clipPath></defs><rect x="-37.5" width="450" fill="#ffffff" y="-37.499999" height="449.999989" fill-opacity="1"/><rect x="-37.5" width="450" fill="#ffffff" y="-37.499999" height="449.999989" fill-opacity="1"/><path fill="#fecd1a" d="M 258.277344 133.464844 L 236.90625 138.871094 C 217.363281 143.8125 202.097656 162.476562 198.050781 186.363281 L 193.628906 212.488281 L 189.207031 186.363281 C 185.164062 162.476562 169.894531 143.8125 150.351562 138.871094 L 128.980469 133.464844 L 150.351562 128.058594 C 169.894531 123.113281 185.164062 104.449219 189.207031 80.5625 L 193.628906 54.4375 L 198.050781 80.5625 C 202.097656 104.449219 217.363281 123.113281 236.90625 128.058594 Z M 258.277344 133.464844 " fill-opacity="1" fill-rule="nonzero"/><path fill="#fecd1a" d="M 362.621094 243.382812 L 346.339844 246.746094 C 331.457031 249.824219 319.828125 261.449219 316.75 276.324219 L 313.378906 292.59375 L 310.011719 276.324219 C 306.933594 261.449219 295.300781 249.824219 280.417969 246.746094 L 264.140625 243.382812 L 280.417969 240.015625 C 295.300781 236.9375 306.933594 225.3125 310.011719 210.441406 L 313.378906 194.171875 L 316.75 210.441406 C 319.828125 225.3125 331.457031 236.9375 346.339844 240.015625 Z M 362.621094 243.382812 " fill-opacity="1" fill-rule="nonzero"/><path fill="#fecd1a" d="M 166.304688 309.996094 L 140.136719 312.808594 C 127.691406 315.382812 117.96875 325.101562 115.394531 337.539062 L 112.578125 374.945312 L 109.761719 337.539062 C 107.183594 325.101562 97.460938 315.382812 85.015625 312.808594 L 60.90625 309.996094 L 85.015625 307.179688 C 97.460938 304.605469 107.183594 294.890625 109.761719 282.453125 L 112.578125 233.480469 L 115.394531 282.453125 C 117.96875 294.890625 127.691406 304.605469 140.136719 307.179688 Z M 166.304688 309.996094 " fill-opacity="1" fill-rule="nonzero"/><g clip-path="url(#ff19fdc28c)"><path fill="#fecd1a" d="M 368.445312 110.996094 L 362.933594 112.535156 C 357.894531 113.9375 353.957031 119.246094 352.914062 126.035156 L 351.773438 133.464844 L 350.632812 126.035156 C 349.589844 119.246094 345.652344 113.9375 340.613281 112.535156 L 335.101562 110.996094 L 340.613281 109.460938 C 345.652344 108.054688 349.589844 102.75 350.632812 95.957031 L 351.773438 88.53125 L 352.914062 95.957031 C 353.957031 102.75 357.894531 108.054688 362.933594 109.460938 Z M 368.445312 110.996094 " fill-opacity="1" fill-rule="nonzero"/></g><g clip-path="url(#206051228e)"><path fill="#fecd1a" d="M 34.058594 168.3125 L 29.542969 169.570312 C 25.417969 170.722656 22.195312 175.066406 21.339844 180.625 L 20.40625 186.707031 L 19.472656 180.625 C 18.617188 175.066406 15.394531 170.722656 11.269531 169.570312 L 6.753906 168.3125 L 11.269531 167.054688 C 15.394531 165.902344 18.617188 161.558594 19.472656 155.996094 L 20.40625 149.914062 L 21.339844 155.996094 C 22.195312 161.558594 25.417969 165.902344 29.542969 167.054688 Z M 34.058594 168.3125 " fill-opacity="1" fill-rule="nonzero"/></g><path fill="#fecd1a" d="M 132.40625 25.335938 L 126.191406 27.066406 C 120.507812 28.652344 116.066406 34.636719 114.890625 42.292969 L 113.605469 50.667969 L 112.320312 42.292969 C 111.144531 34.636719 106.703125 28.652344 101.019531 27.066406 L 94.804688 25.335938 L 101.019531 23.601562 C 106.703125 22.015625 111.144531 16.035156 112.320312 8.375 L 113.605469 0 L 114.890625 8.375 C 116.066406 16.035156 120.507812 22.015625 126.191406 23.601562 Z M 132.40625 25.335938 " fill-opacity="1" fill-rule="nonzero"/><path fill="#fecd1a" d="M 302.476562 37.664062 L 299.449219 38.507812 C 296.683594 39.28125 294.523438 42.191406 293.953125 45.917969 L 293.328125 49.996094 L 292.699219 45.917969 C 292.128906 42.191406 289.96875 39.28125 287.203125 38.507812 L 284.175781 37.664062 L 287.203125 36.820312 C 289.96875 36.050781 292.128906 33.136719 292.699219 29.410156 L 293.328125 25.335938 L 293.953125 29.410156 C 294.523438 33.136719 296.683594 36.050781 299.449219 36.820312 Z M 302.476562 37.664062 " fill-opacity="1" fill-rule="nonzero"/></svg>