<svg width="500" height="500" viewBox="0 0 500 500" fill="none" xmlns="http://www.w3.org/2000/svg">
<g clip-path="url(#clip0_180_1508)">
<path d="M483.495 324.511L461.786 328.995C441.943 333.099 426.438 348.599 422.333 368.432L417.839 390.125L413.349 368.432C409.245 348.599 393.734 333.099 373.891 328.995L352.188 324.511L373.891 320.021C393.734 315.917 409.245 300.417 413.349 280.589L417.839 258.896L422.333 280.589C426.438 300.417 441.943 315.917 461.786 320.021L483.495 324.511Z" fill="#FECD1A"/>
<path d="M221.74 413.328L186.849 417.078C170.255 420.51 157.292 433.469 153.86 450.052L150.104 499.927L146.349 450.052C142.912 433.469 129.948 420.51 113.354 417.078L81.2085 413.328L113.354 409.573C129.948 406.14 142.912 393.187 146.349 376.604L150.104 311.307L153.86 376.604C157.292 393.187 170.255 406.14 186.849 409.573L221.74 413.328Z" fill="#FECD1A"/>
<mask id="mask0_180_1508" style="mask-type:luminance" maskUnits="userSpaceOnUse" x="446" y="117" width="46" height="62">
<path d="M446.667 117.333H491.635V178.667H446.667V117.333Z" fill="white"/>
</mask>
<g mask="url(#mask0_180_1508)">
<path d="M491.26 147.995L483.911 150.047C477.192 151.917 471.942 158.995 470.552 168.047L469.031 177.953L467.51 168.047C466.119 158.995 460.869 151.917 454.151 150.047L446.802 147.995L454.151 145.948C460.869 144.073 466.119 137 467.51 127.943L469.031 118.042L470.552 127.943C471.942 137 477.192 144.073 483.911 145.948L491.26 147.995Z" fill="#FECD1A"/>
</g>
<mask id="mask1_180_1508" style="mask-type:luminance" maskUnits="userSpaceOnUse" x="8" y="198" width="39" height="52">
<path d="M8.63525 198.667H46.6665V249.333H8.63525V198.667Z" fill="white"/>
</mask>
<g mask="url(#mask1_180_1508)">
<path d="M45.4111 224.417L39.3903 226.094C33.8903 227.63 29.5934 233.422 28.4528 240.833L27.208 248.943L25.9632 240.833C24.8226 233.422 20.5257 227.63 15.0257 226.094L9.00488 224.417L15.0257 222.739C20.5257 221.203 24.8226 215.411 25.9632 207.995L27.208 199.885L28.4528 207.995C29.5934 215.411 33.8903 221.203 39.3903 222.739L45.4111 224.417Z" fill="#FECD1A"/>
</g>
<path d="M176.542 33.7813L168.255 36.0885C160.677 38.2031 154.755 46.1823 153.188 56.3906L151.474 67.5573L149.76 56.3906C148.193 46.1823 142.271 38.2031 134.693 36.0885L126.406 33.7813L134.693 31.4688C142.271 29.3542 148.193 21.3802 149.76 11.1667L151.474 0L153.188 11.1667C154.755 21.3802 160.677 29.3542 168.255 31.4688L176.542 33.7813Z" fill="#FECD1A"/>
<path d="M403.302 50.2188L399.265 51.3438C395.578 52.375 392.698 56.2552 391.937 61.224L391.104 66.6615L390.265 61.224C389.505 56.2552 386.625 52.375 382.937 51.3438L378.901 50.2188L382.937 49.0938C386.625 48.0677 389.505 44.1823 390.265 39.2135L391.104 33.7812L391.937 39.2135C392.698 44.1823 395.578 48.0677 399.265 49.0938L403.302 50.2188Z" fill="#FECD1A"/>
</g>
<defs>
<clipPath id="clip0_180_1508">
<rect width="500" height="500" fill="white"/>
</clipPath>
</defs>
</svg>
