<svg width="100" height="100" viewBox="0 0 100 100" fill="none" xmlns="http://www.w3.org/2000/svg">
<g clip-path="url(#clip0_100_31)">
<g clip-path="url(#clip1_100_31)">
<path d="M80.247 9.88721L73.0061 4.87427C71.5566 6.46125 69.1221 6.77297 67.3059 5.51559L31.0225 57.9238C32.8386 59.1812 33.4038 61.5696 32.4286 63.4849L39.6694 68.4978C41.1189 66.9109 43.5534 66.5991 45.3696 67.8565C47.1858 69.1139 47.751 71.5023 46.7758 73.4176L54.0165 78.4305C55.466 76.8435 57.9005 76.5318 59.7167 77.7892L96.0002 25.3808C94.184 24.1234 93.6188 21.735 94.594 19.8197L87.3533 14.8068C85.9038 16.3938 83.4692 16.7055 81.6531 15.4481C79.8371 14.1909 79.2719 11.8023 80.247 9.88721Z" fill="#F2F2F2"/>
<path d="M58.4199 70.9071L83.1895 35.1278L62.6916 20.9374L37.922 56.7166L58.4199 70.9071Z" fill="#F25F60"/>
<path d="M54.061 41.4272L60.1376 43.2497L63.7488 38.0337L63.8932 44.376L69.9699 46.1988L63.9824 48.296L64.1268 54.6383L60.282 49.5921L54.2947 51.6895L57.9059 46.4734L54.061 41.4272Z" fill="#F2F2F2"/>
<path opacity="0.1" d="M52.4837 77.3697L66.2116 18.8673L61.9214 17.8606L62.2859 14.0719L61.5086 13.8896L31.0225 57.9238C32.8386 59.1812 33.4038 61.5696 32.4286 63.4849L39.6696 68.4978C41.1189 66.9108 43.5536 66.5991 45.3698 67.8565C47.1859 69.1139 47.7511 71.5023 46.7759 73.4175L52.4837 77.3697Z" fill="black"/>
<path d="M40.205 13.7376L31.6313 11.7257C30.8639 13.7332 28.7128 14.9153 26.5624 14.4106L12 76.4677C14.1504 76.9723 15.5515 78.9877 15.3457 81.1272L23.9195 83.1391C24.6868 81.1317 26.838 79.9496 28.9884 80.4543C31.1387 80.9589 32.5398 82.9743 32.3341 85.1138L40.9079 87.1257C41.6752 85.1182 43.8264 83.9362 45.9768 84.4408L60.5388 22.3839C58.3884 21.8794 56.9873 19.8639 57.1931 17.7243L48.6195 15.7124C47.8522 17.7199 45.701 18.902 43.5506 18.3973C41.4001 17.8923 39.9993 15.8772 40.205 13.7376Z" fill="#FFD886"/>
<path d="M27.1988 25.5116C27.0918 25.5116 26.9828 25.4993 26.8741 25.4739L24.1175 24.827C23.3562 24.6485 22.8839 23.8865 23.0627 23.1253C23.2412 22.3642 24.0031 21.8917 24.7644 22.0705L27.521 22.7174C28.2822 22.8959 28.7546 23.6578 28.5757 24.4191C28.423 25.0712 27.8411 25.5116 27.1988 25.5116Z" fill="#FF6465"/>
<path d="M49.9702 30.8548C49.8632 30.8548 49.7544 30.8425 49.6455 30.8171L43.9527 29.4811C43.1914 29.3026 42.7191 28.5407 42.8979 27.7794C43.0764 27.0184 43.8378 26.5459 44.5996 26.7247L50.2924 28.0607C51.0536 28.2392 51.526 29.0011 51.3471 29.7623C51.1944 30.4146 50.6126 30.8548 49.9702 30.8548ZM38.5847 28.1832C38.4777 28.1832 38.369 28.1709 38.26 28.1455L32.5672 26.8095C31.8059 26.631 31.3336 25.8691 31.5124 25.1078C31.6909 24.3466 32.4525 23.8743 33.2141 24.0531L38.9069 25.3891C39.6682 25.5676 40.1405 26.3295 39.9617 27.0907C39.8088 27.743 39.2272 28.1832 38.5847 28.1832Z" fill="#FF6465"/>
<path d="M58.4195 32.8376C58.3125 32.8376 58.2036 32.8253 58.0948 32.7999L55.3382 32.153C54.5769 31.9745 54.1046 31.2126 54.2834 30.4513C54.4619 29.6903 55.224 29.2178 55.9851 29.3966L58.7417 30.0435C59.5029 30.222 59.9753 30.9839 59.7964 31.7451C59.6435 32.3975 59.0619 32.8376 58.4195 32.8376Z" fill="#FF6465"/>
<path d="M42.2532 78.5135L52.1973 36.1479L27.9262 30.451L17.9821 72.8166L42.2532 78.5135Z" fill="#FF6465"/>
<path d="M27.394 52.6777L33.7157 52.1475L35.1652 45.9713L37.6229 51.8198L43.9447 51.2896L39.1419 55.4345L41.5996 61.2831L36.1735 57.9961L31.3708 62.141L32.8201 55.9647L27.394 52.6777Z" fill="white"/>
<path d="M64.3481 16.1757C64.0701 16.1757 63.7893 16.0942 63.5436 15.9239L61.2155 14.3121C60.5726 13.867 60.4123 12.985 60.8574 12.3422C61.3025 11.6993 62.1846 11.539 62.8273 11.9841L65.1553 13.5958C65.7983 14.0409 65.9586 14.9229 65.5135 15.5657C65.2385 15.9628 64.797 16.1757 64.3481 16.1757Z" fill="#F25F60"/>
<path d="M83.5788 29.4896C83.3007 29.4896 83.02 29.4079 82.7742 29.2378L77.9665 25.9093C77.3235 25.4642 77.1632 24.5822 77.6083 23.9396C78.0534 23.2966 78.9355 23.1363 79.5783 23.5814L84.3859 26.9099C85.0289 27.355 85.1892 28.237 84.7441 28.8796C84.4691 29.2765 84.0276 29.4896 83.5788 29.4896ZM73.9635 22.8326C73.6854 22.8326 73.4047 22.7509 73.159 22.5808L68.3513 19.2523C67.7083 18.8072 67.548 17.9252 67.9931 17.2825C68.4382 16.6396 69.3204 16.4793 69.963 16.9244L74.7707 20.2529C75.4137 20.698 75.574 21.58 75.1289 22.2228C74.8539 22.6197 74.4124 22.8326 73.9635 22.8326Z" fill="#F25F60"/>
<path d="M90.7143 34.4299C90.4363 34.4299 90.1556 34.3482 89.9098 34.178L87.5817 32.5663C86.9388 32.1212 86.7785 31.2392 87.2236 30.5964C87.6687 29.9534 88.5509 29.7931 89.1935 30.2382L91.5215 31.85C92.1645 32.2951 92.3248 33.1771 91.8797 33.8199C91.6049 34.2168 91.1632 34.4299 90.7143 34.4299Z" fill="#F25F60"/>
</g>
</g>
<defs>
<clipPath id="clip0_100_31">
<rect width="100" height="100" fill="white"/>
</clipPath>
<clipPath id="clip1_100_31">
<rect width="84" height="84" fill="white" transform="translate(12 4)"/>
</clipPath>
</defs>
</svg>
